<?xml version="1.0" encoding="UTF-8" standalone="no"?>
<svg width="71px" height="74px" viewBox="0 0 71 74" version="1.1" xmlns="http://www.w3.org/2000/svg" xmlns:xlink="http://www.w3.org/1999/xlink">
    <!-- Generator: Sketch 40.3 (33839) - http://www.bohemiancoding.com/sketch -->
    <title>needle</title>
    <desc>Created with Sketch.</desc>
    <defs></defs>
    <g id="Our-Story" stroke="none" stroke-width="1" fill="none" fill-rule="evenodd">
        <g id="OUR-STORY-V2-Copy" transform="translate(-503.000000, -2518.000000)" fill="#000000">
            <g id="needle" transform="translate(503.000000, 2518.000000)">
                <path d="M68.3084672,13.5234586 C69.7395744,12.1222595 70.5260417,10.2439508 70.522751,8.23469351 C70.5192958,6.22543624 69.7267408,4.34977629 68.2908622,2.95321253 C66.8549835,1.55681432 64.9653231,0.822277405 62.9690454,0.888331096 C60.9730968,0.953225951 59.1341125,1.80778523 57.7908659,3.29457271 L57.113813,4.04400895 L56.4321532,3.35814318 C54.280721,1.1926085 51.4196583,0 48.3761287,0 C45.332599,0 42.4715364,1.1926085 40.3204332,3.35797763 C38.1688364,5.52285011 36.984035,8.40140045 36.984035,11.4633781 C36.984035,14.5265145 38.169001,17.4055615 40.3204332,19.570434 L41.76931,21.0284161 L38.8486864,24.2610738 C34.7521462,28.7952707 30.7100663,33.4085996 26.7300154,38.0864922 L22.6645719,33.9959642 C20.652499,31.9714765 17.9773586,30.8565101 15.1320911,30.8565101 C12.2868236,30.8565101 9.61168313,31.9714765 7.59961026,33.9959642 C5.58803098,36.0199553 4.48023095,38.7114362 4.48023095,41.5749217 C4.48023095,44.4394004 5.58803098,47.1315436 7.59961026,49.1555347 L13.0946802,54.6846756 C8.74459473,60.1684564 4.48928026,65.7176286 0.348316156,71.316962 C-0.145447086,71.9846174 -0.0699264838,72.9173154 0.524859961,73.4955749 C0.84224393,73.8041566 1.25472792,73.9607651 1.6686927,73.9607651 C2.03050056,73.9607651 2.39346014,73.8412394 2.69488442,73.5990425 C8.08119806,69.2726085 13.4140385,64.8344295 18.6799141,60.3043714 L23.8293003,65.4855302 C24.1506331,65.8088456 24.5716728,65.9704206 24.9927125,65.9704206 C25.4137522,65.9704206 25.8349564,65.8088456 26.1561247,65.4855302 C26.7986256,64.8390649 26.7986256,63.7908143 26.1561247,63.1441834 L21.1826241,58.1399955 C24.9028775,54.9050201 28.5872628,51.624519 32.2295277,48.3024653 L38.4003342,54.5113468 C41.1579057,57.2857673 44.8245214,58.8137763 48.7249384,58.8137763 C52.6253554,58.8137763 56.2919712,57.2859329 59.0493781,54.5115123 C61.8081013,51.7367606 63.3272336,48.0473557 63.3272336,44.123038 C63.3272336,40.1985548 61.8081013,36.5093154 59.0495426,33.7347293 L53.4355154,28.0860626 L64.9009908,16.8600805 C65.4604027,17.8239016 65.7600171,18.9231409 65.7600171,20.0688993 C65.7600171,21.7728859 65.1005692,23.3748949 63.9027697,24.580085 L63.3739609,25.1123221 C62.7314599,25.7587875 62.7316245,26.807038 63.3741254,27.4535034 C63.6954582,27.7766532 64.1163334,27.9382282 64.5373731,27.9382282 C64.9584128,27.9382282 65.379617,27.7764877 65.7009498,27.4531723 L66.229594,26.9211007 C68.0486698,25.0908009 69.0505106,22.6574094 69.0505106,20.0688993 C69.0505106,18.0487159 68.4377901,16.1243848 67.304981,14.5061521 L68.3084672,13.5234586 L68.3084672,13.5234586 Z M42.6472575,17.2292528 C41.1172661,15.689821 40.2745285,13.6421566 40.2745285,11.4633781 C40.2745285,9.28575839 41.1172661,7.2385906 42.6474221,5.69899329 C44.177249,4.15906488 46.2116983,3.31096197 48.3761287,3.31096197 C50.540559,3.31096197 52.5750084,4.15906488 54.1049998,5.69915884 L54.8977193,6.49676957 L43.9852391,18.5754899 L42.6472575,17.2292528 L42.6472575,17.2292528 Z M41.2836088,26.4881924 L57.2271762,8.8407651 L58.8134379,10.4368143 L55.4745717,13.9123311 C54.8430944,14.5697226 54.860864,15.6178076 55.5142241,16.2531812 C55.8335825,16.5637494 56.2457374,16.7183714 56.6575633,16.7183714 C57.0879814,16.7183714 57.5179058,16.5493468 57.8407194,16.2134497 L64.6711383,9.10315884 C65.3026156,8.44576734 65.284846,7.39768233 64.6314859,6.76230872 C63.9781257,6.12693512 62.9364679,6.14481432 62.3049906,6.80204027 L61.1006098,8.05573602 L59.4431053,6.38800447 L60.2256238,5.52185682 C60.9648701,4.70371812 61.9767475,4.23356152 63.0751692,4.19780313 C63.1199221,4.1963132 63.1646751,4.19565101 63.2092635,4.19565101 C64.2578317,4.19565101 65.2456872,4.5969396 66.0035258,5.33395973 C66.7937773,6.102434 67.229954,7.1346264 67.2317639,8.24032215 C67.2335737,9.3460179 66.8008522,10.3795347 66.0132332,11.1506577 L45.8314628,30.9111409 C41.4106282,35.2395615 36.9071981,39.514179 32.3356514,43.7263848 L29.0640792,40.4346264 C33.076214,35.7151812 37.1520231,31.0612931 41.2836088,26.4881924 L41.2836088,26.4881924 Z M9.92643457,46.8141879 C8.53646061,45.4156376 7.77088901,43.554877 7.77088901,41.5749217 C7.77088901,39.5957942 8.53646061,37.7356957 9.9265991,36.3371454 C11.3170667,34.9379329 13.1659229,34.167472 15.1322556,34.167472 C17.0985883,34.167472 18.9474446,34.9379329 20.3379121,36.3371454 L24.5907586,40.6162327 C21.4054016,44.4006622 18.2626586,48.2263132 15.1668075,52.0868949 L9.92643457,46.8141879 L9.92643457,46.8141879 Z M11.4445797,62.1282148 C16.4713889,55.6458479 21.6401901,49.2490694 26.9248224,42.9648635 L29.9000709,45.9584698 C23.8548029,51.4694004 17.694362,56.8684206 11.4445797,62.1282148 L11.4445797,62.1282148 Z M56.7228828,36.075745 C58.8596717,38.2250559 60.0365755,41.0829128 60.0365755,44.1227069 C60.0365755,47.1625011 58.8598362,50.0203579 56.7227183,52.1696689 C54.5867522,54.3188143 51.7462561,55.5023177 48.7249384,55.5023177 C45.7036207,55.5023177 42.8631247,54.3188143 40.7271585,52.1696689 L34.6651083,46.0702148 C39.2246441,41.8669485 43.7163923,37.6017673 48.1263677,33.2839418 L51.0769363,30.394962 L56.7228828,36.075745 L56.7228828,36.075745 Z" id="Shape"></path>
            </g>
        </g>
    </g>
</svg>