<?xml version="1.0" encoding="UTF-8" standalone="no"?>
<svg width="90px" height="74px" viewBox="0 0 90 74" version="1.1" xmlns="http://www.w3.org/2000/svg" xmlns:xlink="http://www.w3.org/1999/xlink">
    <!-- Generator: Sketch 40.3 (33839) - http://www.bohemiancoding.com/sketch -->
    <title>comb</title>
    <desc>Created with Sketch.</desc>
    <defs></defs>
    <g id="Our-Story" stroke="none" stroke-width="1" fill="none" fill-rule="evenodd">
        <g id="OUR-STORY-V2-Copy" transform="translate(-129.000000, -2523.000000)" fill="#000000">
            <g id="comb" transform="translate(129.000000, 2523.000000)">
                <g id="Capa_1">
                    <path d="M83.4529091,0.822222222 L6.54872727,0.822222222 C2.93727273,0.822222222 0,3.77235556 0,7.4 L0,28.7777778 C0,32.4054222 2.93727273,35.3555556 6.54872727,35.3555556 L8.18181818,35.3555556 C9.08509091,35.3555556 9.81818182,34.6204889 9.81818182,33.7111111 L9.81818182,13.9777778 L14.7272727,13.9777778 L14.7272727,35.3555556 L18,35.3555556 L18,13.9777778 L22.9090909,13.9777778 L22.9090909,35.3555556 L23.7305455,35.3555556 C23.202,36.6217778 22.9090909,38.0096889 22.9090909,39.4666667 C22.9090909,45.3603556 27.6807273,50.1555556 33.5454545,50.1555556 L42.5454545,50.1555556 L49.0909091,50.1555556 L53.9443636,50.1555556 C56.682,50.1555556 58.9090909,52.3689778 58.9090909,55.0888889 C58.9090909,57.8088 56.682,60.0222222 53.9443636,60.0222222 L44.1818182,60.0222222 L42.5454545,60.0222222 L35.892,60.0222222 C32.3427273,60.0222222 29.4545455,62.9723556 29.4545455,66.6 C29.4545455,70.2276444 32.3427273,73.1777778 35.892,73.1777778 L44.1818182,73.1777778 C45.0850909,73.1777778 45.8181818,72.4427111 45.8181818,71.5333333 C45.8181818,70.6239556 45.0850909,69.8888889 44.1818182,69.8888889 L35.892,69.8888889 C34.1476364,69.8888889 32.7272727,68.4138222 32.7272727,66.6 C32.7272727,64.7861778 34.146,63.3111111 35.892,63.3111111 L42.5454545,63.3111111 L44.1818182,63.3111111 L53.9443636,63.3111111 C58.4852727,63.3111111 62.1818182,59.6226222 62.1818182,55.0888889 C62.1818182,50.5551556 58.4869091,46.8666667 53.9443636,46.8666667 L49.0909091,46.8666667 L42.5454545,46.8666667 L33.5454545,46.8666667 C29.484,46.8666667 26.1818182,43.5465333 26.1818182,39.4666667 C26.1818182,36.2550667 28.2403636,33.5433778 31.0909091,32.5221778 L31.0909091,35.3555556 L34.3636364,35.3555556 L34.3636364,32.0666667 L39.2727273,32.0666667 L39.2727273,35.3555556 L42.5454545,35.3555556 L42.5454545,32.0666667 L47.4545455,32.0666667 L47.4545455,35.3555556 L50.7272727,35.3555556 L50.7272727,13.9777778 L55.6363636,13.9777778 L55.6363636,35.3555556 L58.9090909,35.3555556 L58.9090909,13.9777778 L63.8181818,13.9777778 L63.8181818,35.3555556 L67.0909091,35.3555556 L67.0909091,13.9777778 L72,13.9777778 L72,35.3555556 L75.2727273,35.3555556 L75.2727273,13.9777778 L80.1818182,13.9777778 L80.1818182,33.7111111 C80.1818182,34.6204889 80.9149091,35.3555556 81.8181818,35.3555556 L83.4529091,35.3555556 C87.0643636,35.3555556 90,32.4054222 90,28.7777778 L90,7.4 C90,3.77235556 87.0627273,0.822222222 83.4529091,0.822222222 L83.4529091,0.822222222 Z M26.1818182,31.7723111 L26.1818182,13.9777778 L31.0909091,13.9777778 L31.0909091,29.0770667 C29.214,29.5243556 27.5285455,30.4699111 26.1818182,31.7723111 L26.1818182,31.7723111 Z M34.3636364,28.7777778 L34.3636364,13.9777778 L39.2727273,13.9777778 L39.2727273,28.7777778 L34.3636364,28.7777778 L34.3636364,28.7777778 Z M47.4545455,28.7777778 L42.5454545,28.7777778 L42.5454545,13.9777778 L47.4545455,13.9777778 L47.4545455,28.7777778 L47.4545455,28.7777778 Z M86.7272727,28.7777778 C86.7272727,30.5916 85.2594545,32.0650222 83.4545455,32.0666667 L83.4545455,12.3333333 C83.4545455,11.4239556 82.7214545,10.6888889 81.8181818,10.6888889 L8.18181818,10.6888889 C7.27854545,10.6888889 6.54545455,11.4239556 6.54545455,12.3333333 L6.54545455,32.0666667 C4.74054545,32.0650222 3.27272727,30.5916 3.27272727,28.7777778 L3.27272727,7.4 C3.27272727,5.58782222 4.74218182,4.11111111 6.54872727,4.11111111 L83.4529091,4.11111111 C85.2578182,4.11111111 86.7272727,5.58782222 86.7272727,7.4 L86.7272727,28.7777778 L86.7272727,28.7777778 Z" id="Shape"></path>
                </g>
            </g>
        </g>
    </g>
</svg>