<?xml version="1.0" encoding="UTF-8" standalone="no"?>
<svg width="75px" height="74px" viewBox="0 0 75 74" version="1.1" xmlns="http://www.w3.org/2000/svg" xmlns:xlink="http://www.w3.org/1999/xlink">
    <!-- Generator: Sketch 40.3 (33839) - http://www.bohemiancoding.com/sketch -->
    <title>fabric</title>
    <desc>Created with Sketch.</desc>
    <defs></defs>
    <g id="Our-Story" stroke="none" stroke-width="1" fill="none" fill-rule="evenodd">
        <g id="OUR-STORY-V2-Copy" transform="translate(-1229.000000, -2519.000000)" fill="#000000">
            <g id="fabric" transform="translate(1229.000000, 2519.000000)">
                <path d="M74.2470805,48.4983087 L70.0000268,44.2510067 L74.2662013,39.9850805 C74.7318054,39.5194765 74.9935369,38.887745 74.9935369,38.2291946 C74.9935369,37.5706443 74.7318054,36.9391611 74.2662013,36.4733087 L70.0000268,32.2071342 L74.0255772,28.1815839 C74.9952752,27.2118859 74.9952752,25.6395101 74.0255772,24.6695638 L64.9926107,15.6368456 C64.0226644,14.667396 62.4507852,14.667396 61.4805906,15.6368456 L57.4550403,19.662396 L54.9405302,17.1478859 L58.3060403,13.7821275 C59.2757383,12.8124295 59.2757383,11.2400537 58.3060403,10.2701074 L49.2730738,1.23738926 C48.8072215,0.771785235 48.1757383,0.510053691 47.5171879,0.510053691 C46.8586376,0.510053691 46.226906,0.771785235 45.761302,1.23738926 L41.736,5.2629396 L37.4698255,0.997013423 C36.4998792,0.0275637584 34.928,0.0275637584 33.9578054,0.997013423 L29.6918792,5.2629396 L25.3236443,0.894456376 C24.8577919,0.428852349 24.2263087,0.167120805 23.5677584,0.167120805 C22.9092081,0.167120805 22.2774765,0.428852349 21.8118725,0.894456376 L17.5459463,5.16063087 L13.6227047,1.23738926 C12.6527584,0.267939597 11.0808792,0.267939597 10.1106846,1.23738926 L1.1447651,10.2033087 C0.175067114,11.1730067 0.175067114,12.7453826 1.1447651,13.7153289 L5.06775839,17.6383221 L0.72733557,21.9789933 C-0.242362416,22.9486913 -0.242362416,24.5210671 0.72733557,25.4910134 L5.09557047,29.8592483 L0.83709396,34.1174765 C-0.132604027,35.0871745 -0.132604027,36.6595503 0.83709396,37.6294966 L5.10326846,41.8956711 L1.07771812,45.9209732 C0.108020134,46.8906711 0.108020134,48.463047 1.07771812,49.4329933 L10.1106846,58.4659597 C11.0806309,59.4354094 12.6525101,59.4354094 13.6227047,58.4659597 L17.648255,54.4404094 L20.1630134,56.9549195 L16.7975034,60.3204295 C15.8278054,61.2901275 15.8278054,62.8625034 16.7975034,63.8324497 L25.8304698,72.8654161 C26.8004161,73.8348658 28.3722953,73.8348658 29.3424899,72.8654161 L33.3680403,68.8398658 L37.6339664,73.1057919 C38.1189396,73.5905168 38.754396,73.8331275 39.3898523,73.8331275 C40.0253087,73.8331275 40.6607651,73.5905168 41.1457383,73.1057919 L45.4039664,68.8475638 L49.6512685,73.0948658 C50.6212148,74.0643154 52.193094,74.0643154 53.1632886,73.0948658 L57.5037114,68.7541946 L61.6221342,72.8726174 C62.5920805,73.8420671 64.1639597,73.8423154 65.1341544,72.8726174 L74.1003221,63.9069463 C74.5659262,63.4413423 74.8276577,62.8096107 74.8276577,62.1510604 C74.8276577,61.4925101 74.5659262,60.8610268 74.1003221,60.3951745 L69.981651,56.2767517 L74.2478255,52.0105772 C75.2170268,51.0403826 75.2170268,49.4680067 74.2470805,48.4983087 L74.2470805,48.4983087 Z M63.2367248,20.9047517 L68.7576711,26.425698 L65.5106107,29.6727584 L59.8836309,29.6727584 L59.8836309,24.2578456 L63.2367248,20.9047517 L63.2367248,20.9047517 Z M25.3122215,53.7605034 L21.8245369,50.2728188 L25.4142819,46.6830738 L30.829443,46.6830738 L30.829443,53.7605034 L25.3122215,53.7605034 L25.3122215,53.7605034 Z M42.8733154,29.6727584 L35.7958859,29.6727584 L35.7958859,24.0529799 L39.2872953,20.5615705 L42.8733154,24.1478389 L42.8733154,29.6727584 L42.8733154,29.6727584 Z M42.8733154,34.6392013 L42.8733154,41.7166309 L35.7958859,41.7166309 L35.7958859,34.6392013 L42.8733154,34.6392013 L42.8733154,34.6392013 Z M30.829443,29.6727584 L25.4460671,29.6727584 L22.1319597,26.358651 L27.5861074,20.9045034 L30.829443,24.1478389 L30.829443,29.6727584 L30.829443,29.6727584 Z M25.2099128,34.6392013 L30.829443,34.6392013 L30.829443,41.7166309 L25.2968255,41.7166309 L21.7142819,38.1343356 L25.2099128,34.6392013 L25.2099128,34.6392013 Z M35.7958859,46.6830738 L42.8733154,46.6830738 L42.8733154,53.7605034 L35.7958859,53.7605034 L35.7958859,46.6830738 L35.7958859,46.6830738 Z M47.8397584,46.6830738 L54.9171879,46.6830738 L54.9171879,53.7605034 L47.8397584,53.7605034 L47.8397584,46.6830738 L47.8397584,46.6830738 Z M47.8397584,41.7166309 L47.8397584,34.6392013 L54.9171879,34.6392013 L54.9171879,41.7166309 L47.8397584,41.7166309 L47.8397584,41.7166309 Z M47.8397584,29.6727584 L47.8397584,24.2578456 L51.4334765,20.6641275 L54.9171879,24.1480872 L54.9171879,29.6727584 L47.8397584,29.6727584 L47.8397584,29.6727584 Z M11.8665705,53.1980537 L6.34562416,47.6771074 L10.3711745,43.651557 C11.3408725,42.6818591 11.3408725,41.1094832 10.3711745,40.1395369 L6.105,35.8733624 L10.3632282,31.6151342 C11.3329262,30.6454362 11.3329262,29.0730604 10.3632282,28.1031141 L5.99524161,23.7348792 L10.3356644,19.3944564 C11.3053624,18.4247584 11.3053624,16.8523826 10.3356644,15.8826846 L6.41242282,11.9591946 L11.8665705,6.50504698 L15.7898121,10.4282886 C16.2556644,10.8938926 16.8871477,11.1556242 17.545698,11.1556242 C18.2042483,11.1556242 18.8359799,10.8938926 19.3015839,10.4282886 L23.5675101,6.16211409 L27.9359933,10.5305973 C28.9059396,11.500047 30.4778188,11.500047 31.4480134,10.5305973 L35.7139396,6.26442282 L39.9798658,10.5305973 C40.4457181,10.9962013 41.0772013,11.2579329 41.7357517,11.2579329 C42.394302,11.2579329 43.0260336,10.9962013 43.4916376,10.5305973 L47.5169396,6.50504698 L53.0378859,12.0259933 L45.4109195,19.6621477 L41.0426846,15.2936644 C40.5770805,14.8280604 39.945349,14.5663289 39.2867987,14.5663289 C38.6282483,14.5663289 37.9967651,14.8280604 37.5309128,15.2936644 L33.2647383,19.5598389 L29.3419933,15.6368456 C28.8763893,15.1712416 28.2446577,14.9095101 27.5861074,14.9095101 C26.927557,14.9095101 26.2958255,15.1712416 25.8302215,15.6368456 L16.864302,24.6027651 C15.894604,25.5724631 15.894604,27.1448389 16.864302,28.1147852 L20.7875436,32.0380268 L16.4468725,36.3784497 C15.9812685,36.8440537 15.7195369,37.4757852 15.7195369,38.1343356 C15.7195369,38.7928859 15.9812685,39.4246174 16.4468725,39.8902215 L20.8153557,44.2584564 L11.8665705,53.1980537 L11.8665705,53.1980537 Z M27.5861074,67.5975101 L22.0651611,62.0765638 L25.4145302,58.7271946 L30.829443,58.7271946 L30.829443,64.3544228 L27.5861074,67.5975101 L27.5861074,67.5975101 Z M39.3893557,67.8378859 L35.7956376,64.2441678 L35.7956376,58.7269463 L42.8730671,58.7269463 L42.8730671,64.3539262 L39.3893557,67.8378859 L39.3893557,67.8378859 Z M51.406906,67.8267114 L47.8397584,64.2595638 L47.8397584,58.7271946 L54.9171879,58.7271946 L54.9171879,64.3166779 L51.406906,67.8267114 L51.406906,67.8267114 Z M63.3777718,67.6047114 L59.8836309,64.1103221 L59.8836309,58.7269463 L65.408302,58.7269463 L68.8319195,62.1505638 L63.3777718,67.6047114 L63.3777718,67.6047114 Z M65.4731141,53.7605034 L59.8833826,53.7605034 L59.8833826,46.6830738 L65.4080537,46.6830738 L68.9794228,50.2541946 L65.4731141,53.7605034 L65.4731141,53.7605034 Z M65.5106107,41.7166309 L59.8836309,41.7166309 L59.8836309,34.6392013 L65.408302,34.6392013 L68.9982953,38.2291946 L65.5106107,41.7166309 L65.5106107,41.7166309 Z" id="Shape"></path>
            </g>
        </g>
    </g>
</svg>