<?xml version="1.0" encoding="UTF-8" standalone="no"?>
<svg width="62px" height="74px" viewBox="0 0 62 74" version="1.1" xmlns="http://www.w3.org/2000/svg" xmlns:xlink="http://www.w3.org/1999/xlink">
    <!-- Generator: Sketch 40.3 (33839) - http://www.bohemiancoding.com/sketch -->
    <title>socks</title>
    <desc>Created with Sketch.</desc>
    <defs></defs>
    <g id="Our-Story" stroke="none" stroke-width="1" fill="none" fill-rule="evenodd">
        <g id="OUR-STORY-V2-Copy" transform="translate(-876.000000, -2519.000000)" fill="#000000">
            <g id="socks" transform="translate(876.000000, 2519.000000)">
                <g id="Capa_1">
                    <path d="M23.8492664,36.2622477 L23.8492664,1.55607477 C23.8492664,0.696602804 23.1526636,0 22.2931916,0 L1.59290187,0 C0.733429907,0 0.0368271028,0.696602804 0.0368271028,1.55607477 L0.0368271028,30.7713785 C0.0368271028,37.257271 0.0783224299,41.0686168 0.928630841,43.9822804 C1.78395327,46.9130607 3.38256075,48.900514 6.28481308,52.5085327 C6.47015888,52.7390047 19.5128318,69.3450888 19.5128318,69.3450888 C21.4665701,71.8401682 24.2856589,73.4261542 27.450715,73.8110234 C27.9432991,73.8710187 28.4343271,73.9005841 28.9224159,73.9005841 C31.5703364,73.9005841 34.1209159,73.0276262 36.2273224,71.3778411 C38.722229,69.4239299 40.308215,66.6048411 40.6930841,63.4399579 C41.0779533,60.2750748 40.213986,57.1580841 38.2599019,54.6633505 L23.8492664,36.2622477 L23.8492664,36.2622477 Z M3.14897664,3.11214953 L5.21250467,3.11214953 L5.21250467,5.8952757 C5.21250467,6.75474766 5.90910748,7.45135047 6.76857944,7.45135047 C7.6280514,7.45135047 8.32465421,6.75474766 8.32465421,5.8952757 L8.32465421,3.11214953 L10.3871449,3.11214953 L10.3871449,5.8952757 C10.3871449,6.75474766 11.0837477,7.45135047 11.9432196,7.45135047 C12.8026916,7.45135047 13.4992944,6.75474766 13.4992944,5.8952757 L13.4992944,3.11214953 L15.5621308,3.11214953 L15.5621308,5.8952757 C15.5621308,6.75474766 16.2587336,7.45135047 17.1182056,7.45135047 C17.9776776,7.45135047 18.6742804,6.75474766 18.6742804,5.8952757 L18.6742804,3.11214953 L20.7371168,3.11214953 L20.7371168,9.33420093 L3.14897664,9.33420093 L3.14897664,3.11214953 L3.14897664,3.11214953 Z M8.1460514,49.8564626 C3.72092056,44.3415607 3.21450467,43.3702243 3.15641121,34.5953458 C7.17713551,35.8898271 10.0306308,39.6767944 10.0306308,44.0362243 C10.0308037,46.1614766 9.37068224,48.1765935 8.1460514,49.8564626 L8.1460514,49.8564626 Z M21.9631308,67.4262757 C21.9631308,67.4262757 10.4518084,52.7338178 10.1466449,52.3508505 C12.0881075,50.0200234 13.1429533,47.1160421 13.1429533,44.0365701 C13.1429533,37.9685701 8.93307944,32.7443084 3.14897664,31.3644159 L3.14897664,12.4465234 L20.7371168,12.4465234 L20.7371168,36.7994393 C20.7371168,37.1473084 20.8536495,37.4849766 21.068215,37.7588458 L35.8101215,56.5823364 C36.5210748,57.4900467 37.0248972,58.495271 37.3285047,59.5402617 C31.3109907,60.9044206 26.3085561,64.3066916 23.4825514,68.9429299 C22.9216729,68.5063645 22.4112804,67.9987383 21.9631308,67.4262757 L21.9631308,67.4262757 Z M34.3086822,68.927715 C32.4683645,70.368986 30.1665841,71.0066308 27.8264206,70.7215234 C27.2868084,70.6559953 26.761028,70.5432664 26.2535748,70.3861028 C28.5978879,66.695785 32.758486,63.8751402 37.6516495,62.6641682 C37.4714907,65.0440981 36.3314065,67.3434579 34.3086822,68.927715 L34.3086822,68.927715 Z M58.887229,54.6631776 L44.4762477,36.2624206 L44.4762477,1.55607477 C44.4762477,0.696602804 43.7796449,0 42.9201729,0 L28.4236075,0 C27.5641355,0 26.8675327,0.696602804 26.8675327,1.55607477 C26.8675327,2.41554673 27.5641355,3.11214953 28.4236075,3.11214953 L30.2577009,3.11214953 L30.2577009,5.8952757 C30.2577009,6.75474766 30.9543037,7.45135047 31.8137757,7.45135047 C32.6732477,7.45135047 33.3698505,6.75474766 33.3698505,5.8952757 L33.3698505,3.11214953 L35.7013692,3.11214953 L35.7013692,5.8952757 C35.7013692,6.75474766 36.397972,7.45135047 37.2574439,7.45135047 C38.1169159,7.45135047 38.8135187,6.75474766 38.8135187,5.8952757 L38.8135187,3.11214953 L41.3640981,3.11214953 L41.3640981,9.33420093 L28.4749579,9.33420093 C27.615486,9.33420093 26.9188832,10.0308037 26.9188832,10.8902757 C26.9188832,11.7497477 27.615486,12.4463505 28.4749579,12.4463505 L41.3640981,12.4463505 L41.3640981,36.7992664 C41.3640981,37.1471355 41.4806308,37.4848037 41.6951963,37.7586729 L56.4371028,56.5821636 C57.1459813,57.4872804 57.6489393,58.4892196 57.9528925,59.5309252 C51.9284626,60.886785 46.9163458,64.2843879 44.0813505,68.9183785 C43.9030935,68.7790234 43.7296776,68.6322336 43.5611028,68.4773178 C42.9281262,67.8960374 41.9438224,67.9378785 41.3623692,68.5706822 C40.7810888,69.2036589 40.8301916,70.1801822 41.4557336,70.7694159 C42.0226636,71.3034953 43.0475981,71.9677664 43.6606916,72.3415701 C43.9444159,72.5146402 44.5080607,72.8004393 44.6845888,72.878243 C46.033014,73.4730093 47.4938224,73.8196682 48.9921495,73.8867523 C49.1709252,73.8947056 49.3493551,73.8988551 49.5276121,73.8988551 C52.1807196,73.8988551 54.7624206,73.0146589 56.8501542,71.3812991 C56.8517103,71.3800888 56.8534393,71.3787056 56.8549953,71.3774953 C62.0234112,67.3296262 62.9350981,59.8315935 58.887229,54.6631776 L58.887229,54.6631776 Z M54.9361822,68.9275421 C54.9361822,68.9275421 54.9360093,68.927715 54.9358364,68.927715 C52.6150374,70.7453832 49.5542383,71.2103037 46.8502991,70.3665654 C49.2039486,66.6746916 53.3764766,63.8562944 58.2796682,62.6534486 C58.1021028,65.0371822 56.9616729,67.3408645 54.9361822,68.9275421 L54.9361822,68.9275421 Z" id="XMLID_422_"></path>
                </g>
            </g>
        </g>
    </g>
</svg>