<?xml version="1.0" encoding="UTF-8"?>
<svg width="13px" height="9px" viewBox="0 0 13 9" version="1.1" xmlns="http://www.w3.org/2000/svg" xmlns:xlink="http://www.w3.org/1999/xlink">
    <!-- Generator: Sketch 41.2 (35397) - http://www.bohemiancoding.com/sketch -->
    <title>Shape</title>
    <desc>Created with Sketch.</desc>
    <defs></defs>
    <g id="Desktop-Billing" stroke="none" stroke-width="1" fill="none" fill-rule="evenodd">
        <g id="Billing-Guest-1" transform="translate(-151.000000, -1120.000000)" fill="#212121">
            <path d="M163.50174,1122.02226 L162.384653,1120.2 C162.231481,1120.06668 162.045195,1120 161.826225,1120 C161.607055,1120 161.420768,1120.06668 161.267596,1120.2 L155.879125,1124.89344 L153.46419,1122.78601 C153.310845,1122.65265 153.124673,1122.58604 152.905704,1122.58604 C152.686591,1122.58604 152.500419,1122.65265 152.347075,1122.78601 L151.229988,1123.75757 C151.076644,1123.89091 151,1124.05287 151,1124.24341 C151,1124.4338 151.076644,1124.59591 151.229988,1124.72923 L154.203409,1127.31517 L155.320582,1128.2867 C155.47384,1128.42011 155.660069,1128.48672 155.879125,1128.48672 C156.098094,1128.48672 156.284323,1128.41994 156.437668,1128.2867 L157.554812,1127.31517 L163.50174,1122.14314 C163.654941,1122.00977 163.731728,1121.84783 163.731728,1121.65729 C163.731843,1121.46686 163.654941,1121.30489 163.50174,1121.17153 L163.50174,1122.02226 Z" id="Shape"></path>
        </g>
    </g>
</svg>