<?xml version="1.0" encoding="UTF-8" standalone="no"?>
<svg width="14px" height="19px" viewBox="0 0 14 19" version="1.1" xmlns="http://www.w3.org/2000/svg" xmlns:xlink="http://www.w3.org/1999/xlink">
    <!-- Generator: Sketch 41.2 (35397) - http://www.bohemiancoding.com/sketch -->
    <title>Shape</title>
    <desc>Created with Sketch.</desc>
    <defs></defs>
    <g id="Style-Guide" stroke="none" fill-rule="evenodd">
        <g id="Elements" transform="translate(-974.000000, -618.000000)">
            <g id="Group-3" transform="translate(974.000000, 618.000000)">
                <path d="M1.57211283,5.47631719 L1.57211283,7.37998936 L1.44544971,7.37998936 C0.648217137,7.37998936 0,8.02820649 0,8.82543906 L0,16.7865886 C0,17.5838212 0.648217137,18.2320383 1.44544971,18.2320383 L12.5545503,18.2320383 C13.3517829,18.2320383 14,17.5838212 14,16.7865886 L14,8.82171368 C14,8.02448111 13.3517829,7.37626397 12.5545503,7.37626397 L12.5172964,7.37626397 L12.5172964,5.4725918 C12.5172964,2.45502927 10.0622672,0 7.04470463,0 C4.0271421,0.00372538584 1.57211283,2.45875466 1.57211283,5.47631719 L1.57211283,5.47631719 Z M7.85683874,13.1580628 C7.74507717,13.2400213 7.71527408,13.3182544 7.71527408,13.4486429 C7.71899947,14.0335285 7.71899947,14.6146887 7.71899947,15.1995742 L7.71899947,15.1995742 C7.73017563,15.4417243 7.60723789,15.680149 7.39116551,15.7881852 C6.88078765,16.0489622 6.37040979,15.6838744 6.37040979,15.1995742 L6.37040979,15.1958489 C6.37040979,14.6109633 6.37040979,14.0260777 6.37413518,13.4411921 C6.37413518,13.3219798 6.34805748,13.2437467 6.24374667,13.1655136 C5.71474188,12.7743481 5.53964875,12.107504 5.80415114,11.5226184 C6.06120277,10.9526344 6.69079297,10.6173497 7.28312932,10.736562 C7.94252262,10.8706759 8.40074508,11.3996807 8.40819585,12.059074 C8.40819585,12.5172964 8.22565194,12.889835 7.85683874,13.1580628 L7.85683874,13.1580628 Z M3.96753592,5.47631719 C3.96753592,3.77754125 5.34965407,2.39914848 7.04470463,2.39914848 C8.74348057,2.39914848 10.1218733,3.78126663 10.1218733,5.47631719 L10.1218733,7.37998936 L3.96753592,7.37998936 L3.96753592,5.47631719 L3.96753592,5.47631719 Z" id="Shape"></path>
            </g>
        </g>
    </g>
</svg>